<svg width="280" height="280" viewBox="0 0 280 280" fill="none" xmlns="http://www.w3.org/2000/svg">
<path d="M180.339 137.627H227.796V151.864H180.339V137.627Z" fill="#D64D37"/>
<path d="M246.78 28.4746C262.505 28.4746 275.254 41.2241 275.254 56.9492V128.136C259.529 128.136 246.78 115.386 246.78 99.661V28.4746Z" fill="#FD9A30"/>
<path d="M246.78 151.864H227.797C226.538 151.864 225.331 151.364 224.441 150.474C223.551 149.584 223.051 148.377 223.051 147.119V113.898H185.085V147.119C185.085 148.377 184.585 149.584 183.695 150.474C182.805 151.364 181.598 151.864 180.339 151.864H161.356C145.631 151.864 132.881 164.614 132.881 180.339V280H275.254V180.339C275.254 164.614 262.505 151.864 246.78 151.864Z" fill="#FEC9A3"/>
<path d="M223.051 133.134V113.898H185.085V133.134C190.977 136.089 197.477 137.628 204.068 137.628C210.659 137.628 217.16 136.089 223.051 133.134Z" fill="#FAB989"/>
<path d="M204.068 128.136C180.478 128.136 161.356 109.014 161.356 85.4237V42.7118C175.593 23.7288 227.797 18.983 246.78 42.7118V85.4237C246.78 109.014 227.658 128.136 204.068 128.136Z" fill="#FEC9A3"/>
<path d="M189.831 73.5593C189.831 77.4918 186.644 80.678 182.712 80.678C178.779 80.678 175.593 77.4918 175.593 73.5593C175.593 69.6269 178.779 66.4407 182.712 66.4407C186.644 66.4407 189.831 69.6269 189.831 73.5593ZM232.542 73.5593C232.542 77.4918 229.356 80.678 225.424 80.678C221.491 80.678 218.305 77.4918 218.305 73.5593C218.305 69.6269 221.491 66.4407 225.424 66.4407C229.356 66.4407 232.542 69.6269 232.542 73.5593Z" fill="#8C563B"/>
<path d="M33.2202 170.847H52.2033V208.814H33.2202V170.847Z" fill="#FFCC33"/>
<path d="M0 132.881H85.4237V170.847H0V132.881Z" fill="#E94040"/>
<path d="M61.6951 147.119H71.1866V156.61H61.6951V147.119ZM42.7121 147.119H52.2036V156.61H42.7121V147.119ZM23.729 147.119H33.2205V156.61H23.729V147.119ZM189.831 0H218.305C234.03 0 246.78 12.7495 246.78 28.4746V47.4576H161.356V28.4746C161.356 12.7495 174.106 0 189.831 0Z" fill="#B42A2A"/>
<path d="M233.435 55.7627C224.189 51.6536 214.185 49.5304 204.068 49.5304C193.951 49.5304 183.946 51.6536 174.701 55.7627C173.256 56.4047 171.673 56.6755 170.097 56.5504C168.52 56.4253 167 55.9083 165.674 55.0463C164.348 54.1844 163.259 53.0048 162.505 51.6147C161.751 50.2247 161.356 48.6683 161.356 47.0868V43.5512C161.355 41.8581 161.808 40.1957 162.666 38.7363C163.525 37.277 164.758 36.074 166.238 35.2521C177.81 28.8223 190.83 25.4481 204.068 25.4481C217.306 25.4481 230.326 28.8223 241.897 35.2521C243.378 36.074 244.611 37.277 245.47 38.7363C246.328 40.1957 246.78 41.8581 246.78 43.5512V47.0868C246.78 48.6683 246.385 50.2247 245.631 51.6147C244.877 53.0048 243.787 54.1844 242.462 55.0463C241.136 55.9083 239.615 56.4253 238.039 56.5504C236.463 56.6755 234.88 56.4047 233.435 55.7627Z" fill="#F05D46"/>
<path d="M156.61 56.9491H161.356V85.4237H156.61C148.748 85.4237 142.373 79.0489 142.373 71.1864C142.373 63.3238 148.748 56.9491 156.61 56.9491ZM251.526 56.9491H246.78V85.4237H251.526C259.388 85.4237 265.763 79.0489 265.763 71.1864C265.763 63.3238 259.388 56.9491 251.526 56.9491Z" fill="#FEB784"/>
<path d="M204.068 104.407C196.205 104.407 189.831 98.032 189.831 90.1694H199.322C199.322 91.4281 199.822 92.6352 200.712 93.5252C201.602 94.4152 202.809 94.9152 204.068 94.9152C205.327 94.9152 206.534 94.4152 207.424 93.5252C208.314 92.6352 208.814 91.4281 208.814 90.1694H218.305C218.305 98.032 211.93 104.407 204.068 104.407Z" fill="#FA996B"/>
<path d="M132.881 280H0V208.814H94.9152L132.881 251.525V280Z" fill="#FFB60C"/>
<path d="M56.9492 280H0V208.814H18.983L56.9492 251.525V280Z" fill="#FFCC33"/>
<path d="M275.254 180.339C275.254 164.614 262.505 151.864 246.78 151.864H237.288L227.797 137.627C224.898 141.105 221.27 143.904 217.169 145.825C213.068 147.745 208.596 148.74 204.068 148.74C199.54 148.74 195.067 147.745 190.967 145.825C186.866 143.904 183.238 141.105 180.339 137.627L170.847 151.864H161.356C145.631 151.864 132.881 164.614 132.881 180.339V204.068H155.623C153.019 210.316 152.177 217.158 153.188 223.851C154.199 230.545 157.023 236.833 161.356 242.034V280H246.78V242.034C251.112 236.833 253.937 230.545 254.948 223.851C255.958 217.158 255.116 210.316 252.513 204.068H275.254V180.339Z" fill="#E94040"/>
<path d="M157.507 213.559H190.728V232.542H157.507V213.559Z" fill="#D64D37"/>
<path d="M157.507 204.068H190.728V223.051H157.507V204.068Z" fill="#EBEBE8"/>
<path d="M157.507 213.559H190.728V223.051H157.507V213.559Z" fill="#DEDEDE"/>
<path d="M204.068 172.858C197.826 172.878 191.643 171.641 185.889 169.22C180.135 166.8 174.928 163.246 170.577 158.769C170.112 158.287 169.754 157.712 169.526 157.083C169.297 156.453 169.204 155.783 169.251 155.115C169.299 154.446 169.486 153.796 169.801 153.205C170.116 152.614 170.552 152.095 171.08 151.683C171.979 150.972 173.109 150.617 174.254 150.686C175.399 150.754 176.478 151.241 177.287 152.054C184.32 159.287 193.981 163.367 204.068 163.367C214.155 163.367 223.816 159.287 230.849 152.054C231.658 151.241 232.737 150.754 233.882 150.686C235.027 150.617 236.157 150.972 237.056 151.683C237.585 152.095 238.02 152.614 238.335 153.205C238.65 153.796 238.838 154.447 238.885 155.115C238.933 155.783 238.839 156.454 238.611 157.083C238.382 157.713 238.024 158.288 237.559 158.77C233.208 163.246 228.001 166.8 222.247 169.221C216.493 171.641 210.31 172.878 204.068 172.858ZM178.119 280H246.78V242.034C250.631 237.406 253.292 231.907 254.533 226.015C255.774 220.123 255.556 214.018 253.899 208.23C231.704 241.108 201.148 267.415 178.119 280ZM256.642 204.068H275.254V180.339C275.25 176.804 274.585 173.3 273.294 170.009C269.045 181.953 263.459 193.379 256.642 204.068Z" fill="#B42A2A"/>
<path d="M199.322 148.333V280H208.814V148.333C205.67 148.817 202.466 148.817 199.322 148.333Z" fill="#B42A2A"/>
<path d="M80.6779 223.051H90.1694V232.542H80.6779V223.051ZM61.6948 223.051H71.1863V232.542H61.6948V223.051ZM94.9152 242.034H104.407V251.525H94.9152V242.034ZM75.9321 242.034H85.4236V251.525H75.9321V242.034Z" fill="#E94040"/>
<path d="M33.2202 170.847H52.2033V185.085H33.2202V170.847Z" fill="#FFB60C"/>
</svg>
