<svg width="280" height="280" viewBox="0 0 280 280" fill="none" xmlns="http://www.w3.org/2000/svg">
<g clip-path="url(#clip0_557_1702)">
<path d="M221.587 126.377C220.466 126.377 219.392 125.932 218.599 125.139C217.807 124.347 217.362 123.272 217.362 122.152V82.5524C217.362 81.4318 217.807 80.3572 218.599 79.5648C219.392 78.7724 220.466 78.3273 221.587 78.3273C222.708 78.3273 223.782 78.7724 224.575 79.5648C225.367 80.3572 225.812 81.4318 225.812 82.5524V122.152C225.812 123.272 225.367 124.347 224.575 125.139C223.782 125.932 222.708 126.377 221.587 126.377Z" fill="#75CFF9"/>
<path d="M221.588 87.3562C210.188 87.3562 200.946 78.1151 200.946 66.715V38.9693C200.946 38.5099 201.129 38.0694 201.454 37.7446C201.778 37.4198 202.219 37.2373 202.678 37.2373H240.497C240.956 37.2373 241.397 37.4198 241.722 37.7446C242.046 38.0694 242.229 38.5099 242.229 38.9693V66.715C242.229 78.1146 232.988 87.3562 221.588 87.3562Z" fill="#75CFF9"/>
<path d="M240.496 37.2373H228.399C228.859 37.2373 229.299 37.4198 229.624 37.7446C229.949 38.0694 230.131 38.5099 230.131 38.9693V66.715C230.131 76.0096 223.988 83.8682 215.54 86.4539C217.499 87.0535 219.538 87.3576 221.587 87.3562C232.987 87.3562 242.229 78.1151 242.229 66.715V38.9693C242.228 38.5099 242.046 38.0695 241.721 37.7447C241.396 37.4199 240.956 37.2374 240.496 37.2373Z" fill="#5FA7EE"/>
<path d="M200.946 61.5295V66.715C200.946 78.1146 210.187 87.3563 221.588 87.3563C232.987 87.3563 242.229 78.1152 242.229 66.715V61.5295H200.946Z" fill="#744C9E"/>
<path d="M230.131 61.5295V66.715C230.131 76.0097 223.987 83.8683 215.54 86.4539C217.498 87.0504 219.534 87.3544 221.581 87.3563H221.587C229.442 87.3563 236.27 82.9687 239.759 76.5117C241.385 73.5026 242.234 70.1352 242.229 66.715V61.5295H230.131Z" fill="#644187"/>
<path d="M200.667 134.902V145.934C200.667 148.739 202.147 151.191 204.363 152.573L188.52 196.274L208.527 203.527L226.569 153.761H232.71C239.767 153.761 245.486 148.04 245.486 140.984V134.902H200.667Z" fill="#FFCDBE"/>
<path d="M269.841 117.348H173.333C172.675 117.348 172.044 117.609 171.579 118.075C171.113 118.54 170.852 119.171 170.852 119.829V124.952C170.852 130.447 175.306 134.901 180.801 134.901H262.374C267.869 134.901 272.323 130.447 272.323 124.952V119.829C272.323 119.171 272.061 118.54 271.596 118.075C271.131 117.609 270.499 117.348 269.841 117.348Z" fill="#E94040"/>
<path d="M269.841 117.348H256.325C256.983 117.348 257.614 117.609 258.079 118.075C258.544 118.54 258.806 119.171 258.806 119.829V124.952C258.806 130.447 254.351 134.901 248.856 134.901H262.373C267.868 134.901 272.322 130.447 272.322 124.952V119.829C272.322 119.171 272.061 118.54 271.596 118.075C271.13 117.609 270.499 117.348 269.841 117.348Z" fill="#B42A2A"/>
<path d="M192.513 166.005L177.275 208.037L166.926 177.542C164.692 170.961 161.056 164.943 156.269 159.905C151.483 154.867 145.659 150.928 139.201 148.361L115.727 139.029V106.688H83.3079V139.029C49.3371 139.029 24.1573 188.115 11.3856 208.662C9.06412 212.396 7.67725 216.631 7.67725 221.028C7.67725 233.438 17.7376 243.498 30.1478 243.498H47.9858V263.354H151.048V229.598L157.76 247.401C161.507 257.342 171.732 263.273 182.221 261.59C185.806 261.59 189.305 260.485 192.24 258.427C195.176 256.369 197.406 253.456 198.628 250.085L224.859 177.731C224.985 177.383 225.041 177.014 225.025 176.645C225.008 176.275 224.919 175.912 224.762 175.577C224.605 175.242 224.384 174.941 224.111 174.692C223.838 174.442 223.518 174.249 223.171 174.123L196.121 164.316C195.418 164.062 194.644 164.097 193.967 164.414C193.291 164.73 192.768 165.303 192.513 166.005Z" fill="#DDEBFD"/>
<path d="M214.445 170.959L187.075 246.458C185.815 249.931 183.517 252.933 180.491 255.054C177.466 257.175 173.861 258.313 170.166 258.313C169.12 258.481 168.077 258.574 167.042 258.598C171.462 261.293 176.805 262.459 182.222 261.59C185.807 261.59 189.306 260.485 192.241 258.427C195.177 256.369 197.407 253.456 198.629 250.085L224.86 177.731C224.986 177.383 225.042 177.014 225.026 176.645C225.009 176.275 224.92 175.912 224.763 175.577C224.606 175.242 224.385 174.941 224.112 174.692C223.839 174.442 223.519 174.249 223.172 174.123L214.445 170.959Z" fill="#BED9FD"/>
<path d="M77.7222 143.732C92.2543 158.465 106.785 158.465 121.314 143.732V141.25L115.727 139.029V106.687H83.3085V139.029C81.4185 139.029 79.5575 139.189 77.7222 139.479V143.732Z" fill="#FFCDBE"/>
<path d="M83.3081 106.687V128.373C89.712 133.215 97.8894 137.114 103.377 137.114C106.806 137.114 111.286 135.588 115.727 133.266V106.687H83.3081Z" fill="#EBAE9D"/>
<path d="M151.051 220.548V277.114C151.051 277.493 150.976 277.868 150.831 278.218C150.686 278.568 150.473 278.887 150.205 279.155C149.937 279.423 149.619 279.635 149.269 279.78C148.919 279.925 148.543 280 148.164 280H50.8742C50.1087 280 49.3745 279.696 48.8332 279.155C48.2919 278.613 47.9878 277.879 47.9878 277.114V220.548L56.4283 214.105C60.6088 210.917 63.8343 206.643 65.7532 201.749C67.672 196.854 68.2107 191.527 67.3105 186.347L60.3942 146.454C66.6351 142.419 73.3147 139.734 80.3923 139.157L96.8844 181.759C97.8147 184.161 101.215 184.158 102.14 181.754L118.207 140.017L138.367 148.03L131.722 186.347C130.825 191.527 131.364 196.853 133.283 201.747C135.202 206.641 138.426 210.915 142.604 214.105L151.051 220.548Z" fill="#E94040"/>
<path d="M47.9877 223.928C47.0912 223.928 46.2315 223.572 45.5976 222.938C44.9637 222.304 44.6076 221.444 44.6074 220.548V194.643C44.6234 193.757 44.9865 192.913 45.6187 192.292C46.2509 191.671 47.1015 191.323 47.9877 191.323C48.8738 191.323 49.7244 191.671 50.3566 192.292C50.9888 192.913 51.352 193.757 51.3679 194.643V220.548C51.3679 221.444 51.0118 222.304 50.3778 222.938C49.7439 223.572 48.8842 223.928 47.9877 223.928Z" fill="#BED9FD"/>
<path d="M114.779 213.819H110.238V209.335C110.238 208.146 109.766 207.006 108.925 206.165C108.085 205.325 106.944 204.852 105.755 204.852H98.2835C97.0113 204.852 95.7913 205.358 94.8917 206.257C93.9922 207.157 93.4868 208.377 93.4868 209.649V242.328H114.779C121.894 242.328 127.662 236.56 127.662 229.445V226.702C127.662 219.587 121.894 213.819 114.779 213.819Z" fill="#FFCDBE"/>
<path d="M33.7458 280H92.332C92.4836 280 92.6338 279.97 92.7739 279.912C92.914 279.854 93.0413 279.769 93.1485 279.662C93.2557 279.555 93.3407 279.428 93.3987 279.287C93.4567 279.147 93.4865 278.997 93.4864 278.846V210.961H44.3989C37.8775 210.961 32.5908 216.248 32.5908 222.769V278.846C32.5908 279.483 33.1082 280 33.7458 280Z" fill="#75CFF9"/>
<path d="M72.661 251.795C71.7646 251.795 70.9049 252.151 70.271 252.785C69.6371 253.419 69.2809 254.279 69.2808 255.175V280H76.0413V255.175C76.0413 254.279 75.6851 253.419 75.0512 252.785C74.4173 252.151 73.5575 251.795 72.661 251.795ZM53.4154 264.207C52.5189 264.208 51.6593 264.564 51.0254 265.198C50.3915 265.831 50.0353 266.691 50.0352 267.588V280H56.7956V267.588C56.7956 266.691 56.4395 265.831 55.8056 265.197C55.1717 264.563 54.3119 264.207 53.4154 264.207Z" fill="#5FA7EE"/>
<path d="M154.961 43.7364C153.693 34.4958 142.901 29.0993 137.721 28.128C130.568 16.9324 106.09 0.957636 83.5109 0.0011517C82.3199 -0.0491608 81.5652 1.271 82.1892 2.28654C85.856 8.25131 87.0656 10.9387 87.7815 12.7406C88.2578 13.9399 87.0974 15.1326 85.8817 14.6995C74.8856 10.7828 56.6851 7.42061 40.5206 13.1136C39.5209 13.4658 39.1917 14.7208 39.8878 15.5204C46.2524 22.8277 53.5428 29.423 53.5428 29.423C53.5428 29.423 34.441 56.6191 57.104 85.1097L142.577 87.5159C142.577 87.5165 156.67 56.1997 154.961 43.7364Z" fill="#26447E"/>
<path d="M154.961 43.7364C153.693 34.4959 142.901 29.0993 137.721 28.128C130.569 16.9324 106.091 0.95765 83.5112 0.00116579C82.4547 -0.043678 81.747 0.989369 82.0347 1.93218C100.502 6.67359 117.88 18.9909 123.717 28.128C128.897 29.0993 139.69 34.4959 140.957 43.7364C142.555 55.3859 130.348 83.5051 128.747 87.1271L142.578 87.5165C142.578 87.5165 156.671 56.1997 154.961 43.7364Z" fill="#20396B"/>
<path d="M140.7 95.1738H119.646V74.4762H140.7C146.416 74.4762 151.049 79.1093 151.049 84.8253C151.049 90.5412 146.416 95.1738 140.7 95.1738ZM58.3354 95.1738H79.3901V74.4762H58.3354C52.62 74.4762 47.9863 79.1093 47.9863 84.8253C47.9863 90.5412 52.62 95.1738 58.3354 95.1738Z" fill="#EBAE9D"/>
<path d="M128.372 106.276C124.315 114.18 108.394 124.377 99.5151 124.377C90.6421 124.377 74.7149 114.18 70.6642 106.276C67.5995 100.309 67.2107 81.7803 67.7515 66.3939C83.6782 63.8477 98.7823 56.2642 110.371 45.0532H123.222C126.962 45.0532 130.089 47.9041 130.416 51.6278C131.752 66.6592 132.546 98.1466 128.372 106.276Z" fill="#FFCDBE"/>
<path d="M154.431 191.263C153.535 191.263 152.675 191.619 152.041 192.253C151.407 192.887 151.051 193.747 151.051 194.643V229.603L157.811 247.528V194.643C157.811 193.746 157.455 192.887 156.821 192.253C156.187 191.619 155.327 191.263 154.431 191.263ZM169.684 218.843C170.054 218.977 170.443 219.046 170.836 219.046C172.219 219.046 173.516 218.192 174.014 216.817L177.237 207.926L173.76 197.682L167.658 214.513C167.353 215.356 167.395 216.286 167.775 217.098C168.155 217.91 168.842 218.537 169.684 218.843Z" fill="#BED9FD"/>
</g>
<defs>
<clipPath id="clip0_557_1702">
<rect width="280" height="280" fill="white"/>
</clipPath>
</defs>
</svg>
