<svg width="50" height="50" viewBox="0 0 50 50" fill="none" xmlns="http://www.w3.org/2000/svg">
<path d="M7.81328 29.8786C7.30468 29.8786 6.88219 29.6959 6.54579 29.3307C6.20941 28.9654 6.09616 28.5439 6.20605 28.0662C6.56322 25.3688 7.79267 23.128 9.89443 21.3437C11.9962 19.5595 15.0802 18.6673 19.1463 18.6673C23.2124 18.6673 26.2964 19.5595 28.3981 21.3437C30.4999 23.128 31.7431 25.3688 32.1277 28.0662C32.2101 28.5439 32.0832 28.9654 31.7468 29.3307C31.4104 29.6959 30.9879 29.8786 30.4793 29.8786H7.81328ZM34.724 42.6914V29.415C34.724 26.4646 33.8861 23.9217 32.2101 21.7862C30.5342 19.6508 28.5973 18.1334 26.3994 17.2344L25.6163 13.146C25.2318 12.6964 25.1696 12.1977 25.43 11.6498C25.6902 11.1019 26.137 10.8279 26.7703 10.8279H32.2101V5.51731C32.2101 5.10216 32.3594 4.74547 32.6577 4.44727C32.956 4.14909 33.3132 4 33.7292 4C34.1451 4 34.4973 4.14909 34.7858 4.44727C35.0743 4.74547 35.2185 5.10216 35.2185 5.51731V10.8279H42.5129C42.9387 10.8279 43.2993 11 43.5946 11.3442C43.89 11.6884 44.024 12.0643 43.9965 12.4716L41.2353 40.0782C41.1529 40.8088 40.8369 41.427 40.2874 41.9328C39.738 42.4385 39.0786 42.6914 38.3093 42.6914H34.724ZM7.6123 36.2007C7.14873 36.2007 6.76411 36.0411 6.45847 35.7219C6.15282 35.4027 6 35.0164 6 34.5628C6 34.1093 6.15282 33.728 6.45847 33.419C6.76411 33.1099 7.14873 32.9554 7.6123 32.9554H30.639C31.0759 32.9554 31.4469 33.1124 31.7522 33.4264C32.0575 33.7404 32.2101 34.1241 32.2101 34.5777C32.2101 35.0312 32.0575 35.4151 31.7522 35.7293C31.4469 36.0436 31.0759 36.2007 30.639 36.2007H7.6123ZM7.6123 42.6914C7.14873 42.6914 6.76411 42.5318 6.45847 42.2126C6.15282 41.8934 6 41.5071 6 41.0536C6 40.6001 6.15282 40.2188 6.45847 39.9097C6.76411 39.6006 7.14873 39.446 7.6123 39.446H30.639C31.0759 39.446 31.4469 39.603 31.7522 39.9171C32.0575 40.2311 32.2101 40.6149 32.2101 41.0684C32.2101 41.5219 32.0575 41.9058 31.7522 42.2202C31.4469 42.5344 31.0759 42.6914 30.639 42.6914H7.6123Z" fill="#E94040"/>
</svg>
