<svg width="60" height="60" viewBox="0 0 60 60" fill="none" xmlns="http://www.w3.org/2000/svg">
<path d="M57.8729 24.0284C57.3613 24.6853 56.6931 24.7811 55.943 24.7452C55.0035 24.7003 54.0602 24.7344 53.0705 24.7344C53.0705 24.9661 53.0705 25.1607 53.0705 25.3552C53.0705 32.7039 53.0642 40.0526 53.0792 47.4012C53.0809 48.2493 52.902 48.8469 51.8102 49.0363C51.1899 49.144 50.5291 49.1782 49.9336 48.8312C49.5347 48.5988 49.3518 48.2783 49.3524 47.7962C49.3627 40.3202 49.3596 32.8442 49.3596 25.3682C49.3596 25.1725 49.3596 24.9768 49.3596 24.7581C48.1483 24.7581 46.9763 24.7581 45.7578 24.7581C45.7578 24.9686 45.7578 25.1634 45.7578 25.3583C45.7578 29.5601 45.758 33.7619 45.7577 37.9637C45.7576 38.7372 45.4563 39.1481 44.6795 39.2386C44.0724 39.3094 43.4467 39.2903 42.8359 39.2358C42.4091 39.1978 42.0472 38.5629 42.0472 38.0022C42.0467 33.7822 42.0469 29.5622 42.0469 25.3422C42.0469 25.162 42.0469 24.9819 42.0469 24.7681C33.98 24.7681 25.9321 24.7681 17.8167 24.7681C17.8167 24.9445 17.8167 25.1365 17.8167 25.3285C17.8167 29.5303 17.8168 33.7322 17.8167 37.934C17.8166 38.7138 17.5021 39.1481 16.731 39.2387C16.1243 39.3099 15.4989 39.2893 14.8883 39.2357C14.4799 39.1999 14.1068 38.5669 14.1064 38.0502C14.105 35.7765 14.1058 33.5028 14.1058 31.2291C14.1058 29.0851 14.1058 26.9411 14.1058 24.7658C12.9105 24.7658 11.7384 24.7658 10.504 24.7658C10.504 24.9508 10.504 25.1435 10.504 25.3363C10.504 32.7577 10.4941 40.1791 10.5178 47.6005C10.5205 48.4352 10.1948 48.899 9.42282 48.9868C8.80597 49.057 8.14518 49.015 7.5434 48.8647C6.96698 48.7207 6.78885 48.1873 6.78931 47.5968C6.79511 40.1936 6.79311 32.7904 6.79311 25.3872C6.79311 25.1897 6.79311 24.9923 6.79311 24.7344C5.70219 24.7344 4.63522 24.708 3.5704 24.7445C2.94406 24.766 2.4559 24.5697 2.0277 24.0879C1.99074 22.5129 1.99074 20.9462 2.02788 19.3199C2.16954 19.1183 2.26004 18.963 2.38079 18.8365C3.31816 17.8548 4.25009 16.8675 5.20521 15.9032C6.97175 14.1198 8.7617 12.3595 10.5213 10.5693C10.917 10.1667 11.3777 10.0049 11.8999 10.0046C23.8875 9.99846 35.8751 9.99855 47.8627 10.0043C48.3868 10.0046 48.8421 10.1732 49.2394 10.5746C51.8628 13.2247 54.5068 15.8544 57.1416 18.4933C57.3939 18.746 57.6295 19.0155 57.8729 19.2772C57.8729 20.8439 57.8729 22.4106 57.8729 24.0284Z" fill="#E94040"/>
</svg>
