<svg width="50" height="50" viewBox="0 0 50 50" fill="none" xmlns="http://www.w3.org/2000/svg">
<path d="M46.2759 20.6145C45.8888 21.1115 45.3832 21.184 44.8157 21.1569C44.1048 21.1229 43.3911 21.1487 42.6422 21.1487C42.6422 21.324 42.6422 21.4712 42.6422 21.6184C42.6422 27.1787 42.6374 32.7391 42.6488 38.2994C42.6501 38.9411 42.5147 39.3933 41.6886 39.5366C41.2193 39.6181 40.7192 39.644 40.2687 39.3814C39.9669 39.2055 39.8284 38.9631 39.8289 38.5982C39.8367 32.9416 39.8344 27.2849 39.8344 21.6283C39.8344 21.4802 39.8344 21.3321 39.8344 21.1666C38.9179 21.1666 38.0311 21.1666 37.1091 21.1666C37.1091 21.3259 37.1091 21.4733 37.1091 21.6207C37.1091 24.8 37.1092 27.9793 37.109 31.1586C37.1089 31.7438 36.881 32.0547 36.2932 32.1232C35.8338 32.1767 35.3604 32.1623 34.8983 32.1211C34.5753 32.0923 34.3015 31.612 34.3015 31.1877C34.3011 27.9947 34.3013 24.8016 34.3013 21.6086C34.3013 21.4723 34.3013 21.336 34.3013 21.1742C28.1975 21.1742 22.1081 21.1742 15.9676 21.1742C15.9676 21.3077 15.9676 21.4529 15.9676 21.5982C15.9676 24.7775 15.9677 27.9568 15.9676 31.1361C15.9676 31.7261 15.7296 32.0548 15.1462 32.1233C14.6871 32.1772 14.2139 32.1616 13.7518 32.121C13.4429 32.0939 13.1605 31.615 13.1603 31.2241C13.1592 29.5037 13.1598 27.7833 13.1598 26.0629C13.1598 24.4406 13.1598 22.8184 13.1598 21.1725C12.2554 21.1725 11.3685 21.1725 10.4345 21.1725C10.4345 21.3124 10.4345 21.4583 10.4345 21.6041C10.4345 27.2194 10.427 32.8349 10.4449 38.4502C10.447 39.0818 10.2006 39.4327 9.61643 39.4992C9.1497 39.5523 8.64972 39.5205 8.19438 39.4067C7.75823 39.2978 7.62346 38.8942 7.62381 38.4474C7.62819 32.8459 7.62668 27.2442 7.62668 21.6426C7.62668 21.4932 7.62668 21.3438 7.62668 21.1487C6.80124 21.1487 5.99392 21.1287 5.18824 21.1563C4.71432 21.1726 4.34495 21.024 4.02096 20.6595C3.99299 19.4678 3.99299 18.2824 4.0211 17.0518C4.12828 16.8993 4.19676 16.7818 4.28812 16.6861C4.99738 15.9433 5.70251 15.1962 6.4252 14.4667C7.76184 13.1172 9.1162 11.7853 10.4476 10.4308C10.747 10.1261 11.0956 10.0037 11.4907 10.0035C20.5611 9.99884 29.6314 9.9989 38.7018 10.0033C39.0983 10.0035 39.4428 10.1311 39.7434 10.4347C41.7284 12.44 43.7289 14.4297 45.7226 16.4264C45.9135 16.6176 46.0918 16.8215 46.2759 17.0195C46.2759 18.205 46.2759 19.3904 46.2759 20.6145Z" fill="#E94040"/>
</svg>
