<svg width="66" height="66" viewBox="0 0 66 66" fill="none" xmlns="http://www.w3.org/2000/svg">
<path d="M61.0688 25.7338C60.8466 24.9113 60.3725 24.1791 59.7129 23.6398C59.0534 23.1005 58.2416 22.7812 57.3914 22.7267C55.6777 22.6165 54.0637 21.8828 52.8539 20.6642C51.9546 19.7594 51.3112 18.6324 50.9891 17.3981C50.667 16.1637 50.6778 14.8661 51.0203 13.6372C51.2472 12.8246 51.2139 11.9612 50.9249 11.1685C50.636 10.3757 50.1061 9.69341 49.4095 9.21729C45.6783 6.66954 41.4011 5.03339 36.9221 4.44053C32.4431 3.84767 27.8874 4.31467 23.6219 5.80393C19.3563 7.29318 15.5 9.7631 12.3633 13.0149C9.22657 16.2666 6.89713 20.2094 5.56245 24.5259C4.22777 28.8423 3.92513 33.4118 4.6789 37.8665C5.43268 42.3212 7.2218 46.5368 9.90226 50.1738C12.5827 53.8109 16.0796 56.7678 20.1115 58.8066C24.1434 60.8454 28.5977 61.9091 33.1158 61.9121C35.4602 61.9113 37.7959 61.6281 40.0726 61.0685C40.3588 60.9981 40.6266 60.8671 40.8579 60.6844C41.0892 60.5017 41.2787 60.2716 41.4135 60.0095C41.5484 59.7474 41.6255 59.4594 41.6397 59.165C41.6538 58.8706 41.6047 58.5766 41.4957 58.3027C41.1229 57.3668 41.0325 56.3422 41.2356 55.3555C41.4386 54.3688 41.9263 53.4631 42.6383 52.7505C43.6205 51.8114 44.927 51.2873 46.2859 51.2873C47.6447 51.2873 48.9512 51.8114 49.9334 52.7505C50.099 52.9316 50.252 53.1238 50.3913 53.3259C50.5779 53.5587 50.8121 53.749 51.0781 53.8841C51.3442 54.0193 51.6359 54.0961 51.934 54.1097C52.2378 54.1233 52.5411 54.0741 52.825 53.9651C53.1089 53.8562 53.3673 53.6898 53.584 53.4765C57.1359 49.902 59.6944 45.4632 61.0069 40.5981C62.3195 35.733 62.3408 30.6097 61.0688 25.7338Z" fill="#FFB06B"/>
<path d="M28.8238 20.6765C27.4482 19.3645 25.6201 18.6325 23.7191 18.6325C21.8181 18.6325 19.9901 19.3645 18.6144 20.6765C17.2606 22.0304 16.5 23.8666 16.5 25.7812C16.5 27.6959 17.2606 29.5321 18.6144 30.8859C19.9683 32.2398 21.8045 33.0004 23.7191 33.0004C25.6337 33.0004 27.47 32.2398 28.8238 30.8859C29.4942 30.2156 30.026 29.4198 30.3888 28.5439C30.7516 27.668 30.9384 26.7293 30.9384 25.7812C30.9384 24.8332 30.7516 23.8944 30.3888 23.0186C30.026 22.1427 29.4942 21.3469 28.8238 20.6765ZM47.6895 30.6879C46.5105 29.5629 44.9435 28.9352 43.3139 28.9352C41.6843 28.9352 40.1173 29.5629 38.9383 30.6879C37.7775 31.8481 37.1252 33.4219 37.1248 35.0631C37.1245 36.7043 37.776 38.2784 38.9362 39.4391C40.0964 40.5999 41.6702 41.2522 43.3114 41.2526C44.9526 41.253 46.5267 40.6014 47.6874 39.4412C48.8474 38.2808 49.499 36.7073 49.499 35.0666C49.499 33.4259 48.8474 31.8524 47.6874 30.692L47.6895 30.6879Z" fill="#9E6351"/>
<path d="M30.938 47.4374C32.0771 47.4374 33.0005 46.514 33.0005 45.3749C33.0005 44.2359 32.0771 43.3124 30.938 43.3124C29.7989 43.3124 28.8755 44.2359 28.8755 45.3749C28.8755 46.514 29.7989 47.4374 30.938 47.4374Z" fill="#9E6351"/>
<path d="M37.1255 20.6249C38.2646 20.6249 39.188 19.7015 39.188 18.5624C39.188 17.4234 38.2646 16.4999 37.1255 16.4999C35.9864 16.4999 35.063 17.4234 35.063 18.5624C35.063 19.7015 35.9864 20.6249 37.1255 20.6249Z" fill="#9E6351"/>
<path d="M6.25175 37.5375C5.83438 37.7436 5.49901 38.0848 5.30017 38.5057C5.10133 38.9266 5.05072 39.4024 5.15657 39.8557C6.23319 44.4235 8.41691 48.6564 11.5153 52.1812C12.8764 53.7238 14.3974 55.1176 16.0528 56.3392C16.3915 56.5799 16.7985 56.7057 17.2139 56.6981C17.7736 56.6984 18.3158 56.5029 18.7464 56.1453C18.9409 56.0018 19.1256 55.8454 19.2991 55.6772C21.2125 53.7803 22.3865 51.2631 22.6101 48.5781C22.8336 45.8931 22.0921 43.2164 20.5188 41.0292C18.9455 38.842 16.6436 37.2877 14.027 36.6458C11.4103 36.0039 8.6504 36.3164 6.2435 37.5271L6.25175 37.5375Z" fill="#9E6351"/>
</svg>
