<svg width="66" height="66" viewBox="0 0 66 66" fill="none" xmlns="http://www.w3.org/2000/svg">
<path d="M12.2897 44.1553C9.85369 44.1553 8.32679 45.3182 7.80256 47.3991L4.40578 60.8995C3.88203 62.9798 5.27008 65.3291 7.41572 65.3291H58.4868C60.6325 65.3291 62.2057 62.9798 61.6819 60.899L58.2851 47.3991C57.7614 45.3182 56.2345 44.1553 53.798 44.1553H12.2897Z" fill="#5BB774"/>
<path d="M12.2897 44.1553C9.85368 44.1553 8.32679 45.3182 7.80256 47.3991L5.79771 55.3682H46.6955L49.5559 44.1553H12.2897Z" fill="#FFC45C"/>
<path d="M5.79772 55.3682L4.40578 60.899C3.88203 62.9798 5.27008 65.3291 7.41572 65.3291H29.6083L32.2772 55.3682H5.79772Z" fill="#2196F3"/>
<path d="M46.2249 44.1553L44.3004 52.0421H6.63473L5.0099 58.4976H28.1993L26.3689 65.3291H33.0519L34.8823 58.498H46.7725C47.4822 58.498 48.172 58.2641 48.7354 57.8326C49.2988 57.4011 49.7043 56.7959 49.8891 56.1107L52.8528 44.1553H46.2249Z" fill="#D9DEFB"/>
<path d="M28.0171 44.1553C30.4887 47.1248 32.7922 49.0517 34.1802 49.0517C38.3819 49.0517 42.4154 47.1248 45.9409 44.1553H28.0171Z" fill="#FFA14E"/>
<path d="M52.4879 20.2574C52.4879 31.0202 37.3651 48.9747 32.9998 48.9747C28.9837 48.9747 13.5116 31.0202 13.5116 20.2574C13.5116 9.49462 22.2374 0.769293 32.9998 0.769293C43.7626 0.769293 52.4879 9.49462 52.4879 20.2574Z" fill="#F45558"/>
<path d="M42.4033 21.1383C42.4033 22.1437 42.2052 23.1392 41.8205 24.0681C41.4357 24.997 40.8718 25.8409 40.1609 26.5518C39.45 27.2628 38.606 27.8267 37.6771 28.2114C36.7483 28.5962 35.7527 28.7942 34.7473 28.7942C32.7169 28.7942 30.7696 27.9876 29.3338 26.5518C27.898 25.1161 27.0914 23.1688 27.0914 21.1383C27.0914 19.1078 27.898 17.1605 29.3338 15.7247C30.7696 14.289 32.7169 13.4824 34.7473 13.4824C36.7778 13.4824 38.7251 14.289 40.1609 15.7247C41.5967 17.1605 42.4033 19.1078 42.4033 21.1383Z" fill="#DB375B"/>
<path d="M40.6562 18.2813C40.6562 19.2868 40.4581 20.2824 40.0733 21.2112C39.6886 22.1401 39.1246 22.9841 38.4136 23.6951C37.7027 24.406 36.8586 24.9699 35.9297 25.3546C35.0008 25.7393 34.0052 25.9373 32.9998 25.9373C30.9694 25.9371 29.0222 25.1305 27.5865 23.6947C26.1509 22.259 25.3443 20.3117 25.3443 18.2813C25.3445 16.251 26.1511 14.3039 27.5867 12.8683C29.0223 11.4326 30.9695 10.626 32.9998 10.6259C34.0052 10.6258 35.0008 10.8238 35.9297 11.2085C36.8586 11.5933 37.7027 12.1572 38.4136 12.8681C39.1246 13.579 39.6886 14.423 40.0733 15.3519C40.4581 16.2808 40.6562 17.2759 40.6562 18.2813Z" fill="#D9DEFB"/>
<path d="M8.92703 47.0483V47.5642H9.95893V47.0483H8.92703ZM11.5048 47.0483V47.5642H12.5362V47.0483H11.5048ZM14.0826 47.0483V47.5642H15.114V47.0483H14.0826ZM16.6614 47.0483V47.5642H17.6933V47.0483H16.6614ZM19.2397 47.0483V47.5642H20.2711V47.0483H19.2397ZM21.817 47.0483V47.5642H22.8484V47.0483H21.817ZM24.3957 47.0483V47.5642H25.4276V47.0483H24.3957ZM26.974 47.0483V47.5642H28.0049V47.0483H26.974Z" fill="#EC4676"/>
<path d="M35.5074 61.8748V62.3913H36.5383V61.8748H35.5074ZM38.0862 61.8748V62.3913H39.1176V61.8748H38.0862ZM40.6635 61.8748V62.3913H41.6949V61.8748H40.6635ZM43.2413 61.8748V62.3913H44.2727V61.8748H43.2413ZM45.8205 61.8748V62.3913H46.8519V61.8748H45.8205ZM48.3978 61.8748V62.3913H49.4292V61.8748H48.3978ZM50.9756 61.8748V62.3913H52.007V61.8748H50.9756ZM53.5549 61.8748V62.3913H54.5863V61.8748H53.5549ZM56.1322 61.8748V62.3913H57.1641V61.8748H56.1322ZM58.71 61.8748V62.3913H59.7414V61.8748H58.71Z" fill="#007858"/>
</svg>
