<svg width="50" height="50" viewBox="0 0 50 50" fill="none" xmlns="http://www.w3.org/2000/svg">
<path d="M29.1176 8.49857L20.065 7.12624C12.518 5.995 9.02434 8.44294 7.82762 15.694L6.39928 24.3916C5.62721 29.1391 6.43789 32.2176 9.23666 34.0906C10.7036 35.0921 12.711 35.7597 15.3168 36.1491L24.3694 37.5214C31.9164 38.6527 35.4101 36.2048 36.6068 28.9537L38.0158 20.2561C38.2474 18.8281 38.344 17.5485 38.2667 16.4173C38.0158 11.781 35.1784 9.40728 29.1176 8.49857ZM18.2121 20.4972C15.9537 20.4972 14.1201 18.7354 14.1201 16.5842C14.1201 14.4144 15.9537 12.6526 18.2121 12.6526C20.4511 12.6526 22.2848 14.4144 22.2848 16.5842C22.2848 18.7354 20.4511 20.4972 18.2121 20.4972Z" fill="#E94040"/>
<path d="M41.8763 28.1396L38.981 36.5033C36.5682 43.4762 32.7078 45.3307 25.4503 43.0126L16.7452 40.2309C14.0236 39.3593 12.0548 38.2836 10.7809 36.9299C11.9969 37.3935 13.4059 37.7458 15.008 37.9869L24.0799 39.3593C25.3152 39.5447 26.4733 39.6374 27.5542 39.6374C33.9239 39.6374 37.3403 36.3364 38.5177 29.2337L39.9268 20.5361C40.1198 19.4605 40.197 18.5147 40.197 17.6431C43.1309 19.9612 43.5555 23.2622 41.8763 28.1396Z" fill="#E94040"/>
</svg>
