<svg width="66" height="66" viewBox="0 0 66 66" fill="none" xmlns="http://www.w3.org/2000/svg">
<path d="M43.7076 56.1739C43.7076 60.6916 40.3859 64.4954 35.8631 65.6446C34.9309 65.8811 33.968 66.0007 33.0008 66C27.0869 66 22.2924 61.6011 22.2924 56.1739L33.0178 51.1164L43.7076 56.1739Z" fill="#E58E13"/>
<path d="M43.1895 59.2047C42.0871 62.3267 39.3274 64.7648 35.8631 65.6445C33.6851 65.0916 31.786 63.9235 30.402 62.3569C29.2864 61.0936 30.2928 59.2047 32.0647 59.2047H43.1895ZM60.6469 46.3494L37.6418 50.9145L5.35303 46.3494C7.88673 46.3494 9.31949 45.1333 10.1327 43.1166C14.0668 33.3812 3.58887 5.00775 33.0009 5.00775C62.4128 5.00775 51.9334 33.3812 55.8673 43.1166C56.6822 45.1333 58.1146 46.3494 60.647 46.3494H60.6469Z" fill="#F7D360"/>
<path d="M66 51.2619C66 53.9745 63.6031 56.1739 60.647 56.1739H5.35301C3.87515 56.1739 2.53638 55.6246 1.56776 54.7353C0.598728 53.8467 0 52.618 0 51.2619C0 48.5488 2.39688 46.3493 5.35301 46.3493H60.647C62.1248 46.3493 63.4636 46.8992 64.4322 47.7879C65.4014 48.6773 66 49.9054 66 51.2619Z" fill="#E58E13"/>
<path d="M55.8674 43.1166H27.1286C24.0305 43.1166 21.5528 40.7636 21.6487 37.9216C22.0537 25.8991 19.9641 5.2363 32.7858 5.00929C-2.40953 5.17636 20.0887 46.3494 5.35413 46.3494H60.647C58.1145 46.3494 56.6822 45.1333 55.8674 43.1166Z" fill="#E58E13"/>
<path d="M66 51.2619C66 53.9745 63.6031 56.1739 60.647 56.1739H20.8234C19.345 56.1739 18.0061 55.6246 17.0375 54.7353C16.069 53.8466 15.4697 52.618 15.4697 51.2619C15.4697 48.5488 17.8667 46.3493 20.8234 46.3493H60.6469C62.1247 46.3493 63.4635 46.8992 64.4321 47.7879C65.4013 48.6773 65.9999 49.9054 65.9999 51.2619H66Z" fill="#F7D360"/>
<path d="M38.4422 5.3839C38.4537 5.26002 38.4582 5.13459 38.4582 5.00775C38.4582 2.24271 36.0146 0 33.0008 0C29.9861 0 27.5435 2.24271 27.5435 5.00775C27.5435 5.13459 27.548 5.26002 27.5595 5.3839" fill="#E58E13"/>
<path d="M59.5796 21.62C59.2877 21.6199 59.0077 21.5135 58.8013 21.3241C58.5949 21.1347 58.4789 20.8778 58.4788 20.6099C58.4788 15.9345 57.169 11.9444 54.5861 8.75054C52.6577 6.36629 50.697 5.34006 50.6779 5.32936C50.1487 5.05698 49.9584 4.44275 50.2537 3.95625C50.5488 3.47028 51.215 3.29419 51.7456 3.56309C51.8395 3.61079 54.0686 4.75895 56.2761 7.4509C58.2856 9.90115 60.681 14.1731 60.681 20.6099C60.681 21.1673 60.1876 21.62 59.5796 21.62ZM64.4235 15.8284C64.2789 15.8284 64.1358 15.8023 64.0022 15.7515C63.8686 15.7008 63.7473 15.6263 63.645 15.5325C63.5428 15.4387 63.4617 15.3273 63.4064 15.2048C63.3511 15.0822 63.3227 14.9508 63.3227 14.8182C63.3227 8.36987 59.161 5.80632 58.9837 5.70061C58.4761 5.39691 58.329 4.773 58.6566 4.30585C58.9848 3.83843 59.6597 3.7005 60.1706 3.99905C60.3896 4.12654 65.5243 7.21268 65.5243 14.8182C65.5243 14.9508 65.4959 15.0822 65.4406 15.2047C65.3853 15.3273 65.3042 15.4386 65.2019 15.5324C65.0997 15.6262 64.9784 15.7006 64.8448 15.7514C64.7112 15.8022 64.5681 15.8284 64.4235 15.8284ZM6.42037 21.62C6.12844 21.6199 5.84849 21.5135 5.64207 21.3241C5.43564 21.1347 5.31964 20.8778 5.31957 20.6099C5.31957 14.1731 7.7149 9.90115 9.72391 7.4509C11.9321 4.75895 14.1606 3.6104 14.2544 3.56309C14.51 3.43353 14.8113 3.40244 15.0919 3.47665C15.3725 3.55086 15.6095 3.7243 15.7508 3.95883C15.8917 4.19287 15.9258 4.46865 15.8455 4.72569C15.7652 4.98273 15.577 5.20006 15.3223 5.33001C15.2788 5.35257 13.3313 6.38137 11.4146 8.75054C8.83116 11.9444 7.52174 15.9345 7.52174 20.6099C7.52118 21.1673 7.02837 21.62 6.42037 21.62ZM1.5766 15.8284C1.43203 15.8284 1.28886 15.8023 1.15529 15.7515C1.02172 15.7008 0.900352 15.6263 0.798127 15.5325C0.695902 15.4387 0.614821 15.3273 0.559515 15.2048C0.50421 15.0822 0.475763 14.9508 0.4758 14.8182C0.4758 7.21268 5.61092 4.12654 5.82951 3.99905C6.07587 3.85526 6.37437 3.80712 6.65939 3.86521C6.94442 3.92329 7.19264 4.08285 7.34951 4.30881C7.5058 4.53414 7.55842 4.80711 7.49586 5.06797C7.43331 5.32882 7.26066 5.5563 7.01573 5.70061C6.83311 5.81031 2.67741 8.3749 2.67741 14.8182C2.67743 14.9508 2.64897 15.0822 2.59365 15.2047C2.53834 15.3273 2.45726 15.4386 2.35503 15.5324C2.25281 15.6262 2.13145 15.7006 1.99789 15.7514C1.86432 15.8022 1.72117 15.8284 1.5766 15.8284Z" fill="#E6E6E6"/>
</svg>
