<svg width="50" height="50" viewBox="0 0 50 50" fill="none" xmlns="http://www.w3.org/2000/svg">
<path d="M22.6667 11.9167C22.6667 12.2333 22.4 12.5 22.0834 12.5H20.2C16.6 12.5 13.6667 15.4333 13.6667 19.0333V34.4167C13.6667 34.7333 13.4 35 13.0834 35H11.9167C9.93337 35 8.33337 33.4 8.33337 31.4167V11.9167C8.33337 9.93334 9.93337 8.33334 11.9167 8.33334H19.0834C21.0667 8.33334 22.6667 9.93334 22.6667 11.9167Z" fill="#E94040"/>
<path d="M41.6667 11.9167V31.4167C41.6667 33.4 40.0667 35 38.0834 35H37.0334C36.7167 35 36.45 34.7333 36.45 34.4167V19.0333C36.45 15.4333 33.5167 12.5 29.9167 12.5H27.9167C27.6 12.5 27.3334 12.2333 27.3334 11.9167C27.3334 9.93334 28.9334 8.33334 30.9167 8.33334H38.0834C40.0667 8.33334 41.6667 9.93334 41.6667 11.9167Z" fill="#E94040"/>
<path d="M29.9166 15H20.2C17.9666 15 16.1666 16.8 16.1666 19.0333V37.6333C16.1666 39.8667 17.9666 41.6667 20.2 41.6667H22.9166C23.3833 41.6667 23.75 41.3 23.75 40.8333V36.6667C23.75 35.9833 24.3166 35.4167 25 35.4167C25.6833 35.4167 26.25 35.9833 26.25 36.6667V40.8333C26.25 41.3 26.6166 41.6667 27.0833 41.6667H29.9333C32.15 41.6667 33.95 39.8667 33.95 37.65V19.0333C33.95 16.8 32.15 15 29.9166 15ZM28.3333 29.5833H21.6666C20.9833 29.5833 20.4166 29.0167 20.4166 28.3333C20.4166 27.65 20.9833 27.0833 21.6666 27.0833H28.3333C29.0166 27.0833 29.5833 27.65 29.5833 28.3333C29.5833 29.0167 29.0166 29.5833 28.3333 29.5833ZM28.3333 24.5833H21.6666C20.9833 24.5833 20.4166 24.0167 20.4166 23.3333C20.4166 22.65 20.9833 22.0833 21.6666 22.0833H28.3333C29.0166 22.0833 29.5833 22.65 29.5833 23.3333C29.5833 24.0167 29.0166 24.5833 28.3333 24.5833Z" fill="#E94040"/>
</svg>
