<svg width="50" height="50" viewBox="0 0 50 50" fill="none" xmlns="http://www.w3.org/2000/svg">
<path d="M33.0897 25.7666C32.907 25.7666 32.7379 25.7355 32.5823 25.6732C32.4268 25.611 32.2711 25.502 32.1155 25.3465L24.1327 17.3637C23.9771 17.2081 23.8681 17.0504 23.8059 16.8906C23.7437 16.7309 23.7126 16.5597 23.7126 16.3771C23.7126 16.1945 23.7437 16.0254 23.8059 15.8698C23.8681 15.7142 23.9771 15.5585 24.1327 15.403L32.1155 7.42015C32.2711 7.26454 32.4288 7.15561 32.5885 7.09337C32.7483 7.03112 32.9195 7 33.1021 7C33.2847 7 33.4538 7.03112 33.6094 7.09337C33.765 7.15561 33.9206 7.26454 34.0762 7.42015L42.059 15.403C42.2146 15.5585 42.3236 15.7162 42.3858 15.876C42.448 16.0358 42.4792 16.207 42.4792 16.3895C42.4792 16.5721 42.448 16.7412 42.3858 16.8968C42.3236 17.0524 42.2146 17.2081 42.059 17.3637L34.0762 25.3465C33.9206 25.502 33.7629 25.611 33.6032 25.6732C33.4434 25.7355 33.2722 25.7666 33.0897 25.7666ZM8.40049 22.9656C8.00369 22.9656 7.67107 22.8314 7.40264 22.563C7.13422 22.2946 7 21.9619 7 21.5651V10.3145C7 9.91769 7.13422 9.58508 7.40264 9.31665C7.67107 9.04822 8.00369 8.91401 8.40049 8.91401H19.6511C20.048 8.91401 20.3806 9.04822 20.6489 9.31665C20.9174 9.58508 21.0516 9.91769 21.0516 10.3145V21.5651C21.0516 21.9619 20.9174 22.2946 20.6489 22.563C20.3806 22.8314 20.048 22.9656 19.6511 22.9656H8.40049ZM27.914 42.4792C27.5173 42.4792 27.1846 42.3449 26.9162 42.0765C26.6478 41.8081 26.5135 41.4754 26.5135 41.0787V29.828C26.5135 29.4312 26.6478 29.0986 26.9162 28.8302C27.1846 28.5618 27.5173 28.4275 27.914 28.4275H39.1647C39.5615 28.4275 39.8941 28.5618 40.1625 28.8302C40.4309 29.0986 40.5652 29.4312 40.5652 29.828V41.0787C40.5652 41.4754 40.4309 41.8081 40.1625 42.0765C39.8941 42.3449 39.5615 42.4792 39.1647 42.4792H27.914ZM8.40049 42.4792C8.00369 42.4792 7.67107 42.3449 7.40264 42.0765C7.13422 41.8081 7 41.4754 7 41.0787V29.828C7 29.4312 7.13422 29.0986 7.40264 28.8302C7.67107 28.5618 8.00369 28.4275 8.40049 28.4275H19.6511C20.048 28.4275 20.3806 28.5618 20.6489 28.8302C20.9174 29.0986 21.0516 29.4312 21.0516 29.828V41.0787C21.0516 41.4754 20.9174 41.8081 20.6489 42.0765C20.3806 42.3449 20.048 42.4792 19.6511 42.4792H8.40049Z" fill="#E94040"/>
</svg>
