<svg width="50" height="50" viewBox="0 0 50 50" fill="none" xmlns="http://www.w3.org/2000/svg">
<path d="M34.2167 17.95C34.1 17.9333 33.9833 17.9333 33.8667 17.95C31.2833 17.8667 29.2333 15.75 29.2333 13.15C29.2333 10.5 31.3833 8.33334 34.05 8.33334C36.7 8.33334 38.8667 10.4833 38.8667 13.15C38.85 15.75 36.8 17.8667 34.2167 17.95Z" fill="#E94040"/>
<path d="M39.65 29.5C37.7834 30.75 35.1667 31.2167 32.75 30.9C33.3834 29.5333 33.7167 28.0167 33.7334 26.4167C33.7334 24.75 33.3667 23.1667 32.6667 21.7833C35.1334 21.45 37.75 21.9167 39.6334 23.1667C42.2667 24.9 42.2667 27.75 39.65 29.5Z" fill="#E94040"/>
<path d="M15.7333 17.95C15.85 17.9333 15.9666 17.9333 16.0833 17.95C18.6666 17.8667 20.7166 15.75 20.7166 13.15C20.7166 10.4833 18.5666 8.33334 15.9 8.33334C13.25 8.33334 11.1 10.4833 11.1 13.15C11.1 15.75 13.15 17.8667 15.7333 17.95Z" fill="#E94040"/>
<path d="M15.9167 26.4167C15.9167 28.0333 16.2667 29.5667 16.9 30.95C14.55 31.2 12.1 30.7 10.3 29.5167C7.66668 27.7667 7.66668 24.9167 10.3 23.1667C12.0833 21.9667 14.6 21.4833 16.9667 21.75C16.2833 23.15 15.9167 24.7333 15.9167 26.4167Z" fill="#E94040"/>
<path d="M25.2 31.45C25.0667 31.4333 24.9167 31.4333 24.7667 31.45C21.7 31.35 19.25 28.8333 19.25 25.7333C19.2667 22.5667 21.8167 20 25 20C28.1667 20 30.7333 22.5667 30.7333 25.7333C30.7167 28.8333 28.2833 31.35 25.2 31.45Z" fill="#E94040"/>
<path d="M19.7833 34.9C17.2666 36.5833 17.2666 39.35 19.7833 41.0167C22.65 42.9333 27.35 42.9333 30.2166 41.0167C32.7333 39.3333 32.7333 36.5667 30.2166 34.9C27.3666 32.9833 22.6666 32.9833 19.7833 34.9Z" fill="#E94040"/>
</svg>
