<svg width="21" height="20" viewBox="0 0 21 20" fill="none" xmlns="http://www.w3.org/2000/svg">
<path d="M20.98 9.40996C20.64 3.60996 15.37 -0.860038 9.29999 0.139962C5.11999 0.829962 1.76999 4.21996 1.11999 8.39996C0.73999 10.82 1.23999 13.11 2.32999 15L1.43999 18.31C1.23999 19.06 1.92999 19.74 2.66999 19.53L5.92999 18.63C7.40999 19.5 9.13999 20 10.99 20C16.63 20 21.31 15.03 20.98 9.40996ZM15.88 13.72C15.6388 14.2147 15.2268 14.6054 14.72 14.82C14.42 14.95 14.09 15.01 13.74 15.01C13.23 15.01 12.68 14.89 12.11 14.64C11.5025 14.3732 10.9258 14.0413 10.39 13.65C9.80999 13.23 9.26999 12.76 8.74999 12.25C8.22999 11.73 7.76999 11.18 7.34999 10.61C6.93999 10.04 6.60999 9.46996 6.36999 8.89996C6.12999 8.32996 6.00999 7.77996 6.00999 7.25996C6.00999 6.91996 6.06999 6.58996 6.18999 6.28996C6.30999 5.97996 6.49999 5.69996 6.76999 5.44996C7.08999 5.12996 7.43999 4.97996 7.80999 4.97996C7.94999 4.97996 8.08999 5.00996 8.21999 5.06996C8.34999 5.12996 8.46999 5.21996 8.55999 5.34996L9.71999 6.98996C9.80999 7.11996 9.87999 7.22996 9.91999 7.33996C9.96999 7.44996 9.98999 7.54996 9.98999 7.64996C9.98999 7.76996 9.94999 7.88996 9.87999 8.00996C9.80999 8.12996 9.71999 8.24996 9.59999 8.36996L9.21999 8.76996C9.15999 8.82996 9.13999 8.88996 9.13999 8.96996C9.13999 9.00996 9.14999 9.04996 9.15999 9.08996C9.17999 9.12996 9.18999 9.15996 9.19999 9.18996C9.28999 9.35996 9.44999 9.56996 9.66999 9.82996C10.1382 10.3801 10.6498 10.8918 11.2 11.36C11.46 11.58 11.68 11.73 11.85 11.82C11.88 11.83 11.91 11.85 11.94 11.86C11.98 11.88 12.02 11.88 12.07 11.88C12.16 11.88 12.22 11.85 12.28 11.79L12.66 11.41C12.79 11.28 12.91 11.19 13.02 11.13C13.14 11.06 13.25 11.02 13.38 11.02C13.48 11.02 13.58 11.04 13.69 11.09C13.8 11.14 13.92 11.2 14.04 11.29L15.7 12.47C15.83 12.56 15.92 12.67 15.98 12.79C16.03 12.92 16.06 13.04 16.06 13.18C16 13.35 15.96 13.54 15.88 13.72Z" fill="white"/>
</svg>
